<svg xmlns="http://www.w3.org/2000/svg" xmlns:xlink="http://www.w3.org/1999/xlink" viewBox="0 0 259.25 210.82"><defs><style>.cls-1{fill:none;}.cls-2{clip-path:url(#clip-path);}.cls-3{fill:#e33c95;}</style><clipPath id="love-icon" transform="translate(40.62 12.62)"><path class="cls-1" d="M169.75,6.4C126.42-13.78,99.57,41.08,98,44.45,96.5,41,71.7-14.79,27.65,3.77c0,0-43.85,18.3-21.11,76.34,22.14,56.52,85.82,82,89.16,83.33v.05l.07,0,.07,0v-.05c3.38-1.18,68-24.31,92.18-80C212.89,26.31,169.75,6.4,169.75,6.4Z"/></clipPath></defs><g id="圖層_2" data-name="圖層 2"><g id="Objects"><g class="cls-2"><path class="cls-3" d="M-21.5,53.89C5.92,31.27,31.48.44,66.76-9.82l-11.8-1c-3.8,9-12.25,15.45-20,21S18.88,20.68,11.49,26.8C.94,35.55-8.68,45.33-18.31,55.06c-7.44,7.53-18.86,14.88-22.28,25.29-.81,2.48,12,.56,13.08,0C-5.46,70.06,10.38,50.52,28.58,35c9-7.68,18-15.48,27.25-22.82C65.35,4.65,76.05-3.18,88-6.09L77.63-7.5C75-2.29,70.68,1.47,66.22,5.09,61,9.31,56,13.72,51.06,18.22,39.67,28.53,28.58,39.11,17.54,49.81S-4,72-14.44,83.49c-7.34,8.09-18.25,16.05-21.48,26.86-.68,2.28,10.9,1,12,.5,11.23-4.75,17.93-15,26.67-23,11.83-10.81,23.48-21.82,35.3-32.66C58.51,36.46,78.85,15.78,103.83,3.06L91,2.5C77.86,24.29,55.75,38.31,38.48,56.39,19.55,76.2-1.47,94.43-17,117.17c-1.66,2.42,11.36,1.43,12.87.56,26.91-15.6,45.33-42.1,68.5-62.27,11-9.61,21.31-20.08,32.37-29.68C108,16,120.34,6.15,134.76,1.52L123,.5c-4.4,6.78-10.62,11.85-16.78,17s-12.09,11-17.94,16.72Q68.59,53.48,49.92,73.69c-23.07,24.92-48,48.63-66.29,77.48-1.35,2.12,11.47,2,13.54.06,23.14-21.55,43.73-45.59,66.11-67.91,20.81-20.75,42.54-41.25,65.44-59.69C141.94,13,155.94,3.29,171.16-4.27l-12.87-.56c-7.35,11.29-18.77,18.54-28.7,27.3C117.5,33.13,105.81,44.31,94.32,55.61c-21,20.68-42.27,41.76-61.53,64.11-10.45,12.13-20,25.07-27.16,39.45-1.45,2.9,11.39,1.48,12.86.56C30.73,152,39.42,139.59,49,129c11.35-12.59,22.88-25,34.77-37.13,20.61-21,41.66-42.42,64.53-60.93,12.6-10.2,26.36-19.54,41.82-24.75l-12-.5c-3.63,11.64-17.37,18.38-25.83,26.14q-19.58,18-38.69,36.44c-11.41,11-22.42,22.36-33.66,33.53-10.78,10.72-21.62,21.4-31.73,32.76-11,12.4-21.24,25.66-28.54,40.62-1.3,2.65,11.66,1.83,13.54.06,22.69-21.37,43.08-45,64.31-67.74,21.57-23.14,45-44.27,69.31-64.46,6.91-5.72,14-11.25,21-16.78,6.81-5.32,13.86-10.91,22.26-13.4l-11.8-1c-5.12,7.15-11.68,13-18.06,18.93-7.17,6.7-14,13.77-21,20.67-14,13.86-28,27.68-41.24,42.26-24.69,27.23-50.77,54-69.05,86.14-1.45,2.56,11.64,1.58,13.54.06,28.33-22.63,49-52.86,74.39-78.42,24.45-24.58,48.94-52.25,80.94-67.08L205,33.83c-3.56,7.16-9.45,12.68-15.19,18.1-6.65,6.28-13.06,12.81-19.52,19.29-14.08,14.12-28.38,28.12-41.81,42.86-12.8,14.06-25,28.62-37,43.39-5.41,6.67-10.79,13.36-16.26,20-4.94,6-9.74,12.18-12.42,19.56-.82,2.25,11.86.74,13.08,0,25.68-14.76,40.1-42.91,60-63.83,10.64-11.19,20.79-22.84,31.77-33.7s23.31-21.82,37.83-28l-12-.5c-2.6,12-12.87,22-21.2,30.29-7.67,7.67-16.16,14.64-23.32,22.8q-8.46,9.66-17.36,19c-3.31,3.45-6.66,6.87-10.17,10.12-1.32,1.22-2.65,2.45-4.07,3.56-.53.42-1.14.78-1.65,1.22-2.71,2.3,3.68-5.62,10.12.25-1.89-1.72-6.41-1.06-8.68-.71-.68.1-6.31,1.21-4.72,2.66,2.76,2.51,9.56,1.23,12.7.17a21,21,0,0,0,6.57-4.19c6.53-5.44,12.36-11.81,18.15-18,4.67-5,9.16-10.17,13.76-15.24,7.24-8,15.64-14.89,23.21-22.54,8.33-8.43,18-18.32,20.63-30.32.53-2.44-10.85-1-12-.5-29,12.36-49.07,38.28-70.14,60.56-10.18,10.76-19.12,22.41-28.39,33.94-9.56,11.89-19.8,24.25-33.21,32l13.08,0c2.81-7.72,8.38-14.18,13.58-20.42,5.58-6.7,11-13.55,16.49-20.31,11.79-14.5,23.86-28.79,36.48-42.57C156.31,98.5,170.16,85,183.79,71.28c6.46-6.48,12.87-13,19.52-19.29,5.74-5.42,11.63-10.94,15.19-18.1,1.55-3.11-11.55-1.17-12.87-.56C180.7,44.89,160.3,64.45,141.07,83.65c-9.88,9.86-19.88,19.63-29.25,30C102.19,124.26,93,135.28,83.49,146,72.78,158.07,61.59,169.74,49,179.83l13.54.06c18.28-32.16,44.36-58.91,69-86.13,13.22-14.58,27.28-28.41,41.25-42.26,7-6.91,13.81-14,21-20.68,6.39-6,13-11.78,18.07-18.93,1.82-2.54-10.79-1.31-11.8-1C186.18,15,174.7,25.74,163.62,34.55c-12.92,10.28-25.4,21.08-37.74,32C101.49,88.21,79.74,112,57.72,136c-12.32,13.42-24.83,26.66-38.09,39.15l13.54.06C46.45,148,68.8,126.34,90,105.27c24-23.9,48.14-47.63,73-70.75,9.56-8.9,25-16.66,29.09-29.81.73-2.34-11-.86-12-.5-27.24,9.17-49.56,29.17-70,48.67-23,21.92-45.56,44.2-67,67.65-6,6.54-12,13.09-17.73,19.82s-11.5,13.59-19,18.32l12.87.56c12.72-25.6,32.85-46.48,52.6-66.75C93.5,70.19,115.15,47.94,138.19,27c11.3-10.28,25.19-18.78,33.64-31.76,1.12-1.72-3.56-1.91-4.2-1.94A17.81,17.81,0,0,0,159-5.33C132.57,7.79,109.82,27.17,88.23,47c-23,21.09-45.17,42.79-66.53,65.54C9.31,125.7-3.13,138.83-16.37,151.17l13.54.06c18.29-28.85,43.22-52.56,66.29-77.48q18.37-19.86,37.65-38.84c6.06-6,12.07-11.95,18.61-17.38,6.15-5.11,12.38-10.19,16.78-17,1.73-2.67-10.74-1.36-11.8-1C96.27,8.68,75.32,33.36,53.8,52.73,42.21,63.16,31.35,74.07,20.52,85.28,9.29,96.89-2.3,108.51-16.37,116.67l12.87.56C12.07,94.5,33.07,76.24,52,56.45,69.3,38.39,91.4,24.35,104.5,2.56,106.17-.22,93,1.31,91.63,2,67.82,14.13,48.51,33.4,28.9,51.17,17.5,61.49,6.33,72.07-5,82.5c-5.1,4.71-10.08,9.37-14.78,14.49-4.11,4.47-8.5,9.47-14.21,11.88l12,.5c1.72-5.77,6.22-10.32,10.34-14.53C-7.28,90.43-3.09,86,1.06,81.38,11.25,70.17,21.58,59.09,32.45,48.54,43,38.29,53.68,28.16,64.6,18.28c5-4.49,10-8.91,15.16-13.13,4.46-3.61,8.79-7.38,11.41-12.59,1.39-2.78-9.31-1.68-10.41-1.41-24.34,5.9-42.42,24.62-61.13,40C.15,47.19-16.49,68.46-39.7,79.33l13.08,0C-24.87,74-20.45,70-16.42,66.31c4.45-4.07,8.74-8.25,13-12.54C6,44.24,15.44,34.63,25.87,26.17,33.44,20,41.94,15.11,49.78,9.32c7.29-5.39,15.1-11.5,18.72-20.09,1.33-3.16-10.57-1.38-11.8-1C19.93-1.11-6.48,30.27-35,53.83c-1.73,1.43,4.7,2,5,2,2.66,0,6.33-.13,8.5-1.92Z" transform="translate(40.62 12.62)"/></g></g></g></svg>